<svg width="19" height="17" viewBox="0 0 19 17" fill="none" xmlns="http://www.w3.org/2000/svg">
<path d="M0 1.19886C0 0.536662 0.624625 0 1.39531 0H17.6047C18.3754 0 19 0.536662 19 1.19886V15.5391C19 16.2013 18.3754 16.738 17.6047 16.738H1.39531C0.624625 16.738 0 16.2013 0 15.5391V1.19886ZM5.86981 14.0118V6.45355H3.01863V14.0118H5.86981ZM4.44481 5.42102C5.43875 5.42102 6.05744 4.84147 6.05744 4.11546C6.03962 3.37375 5.43994 2.80989 4.46381 2.80989C3.48769 2.80989 2.85 3.3748 2.85 4.11546C2.85 4.84147 3.46869 5.42102 4.42581 5.42102H4.44481V5.42102ZM10.2731 14.0118V9.79069C10.2731 9.56472 10.2921 9.33876 10.3681 9.17766C10.5735 8.72678 11.0426 8.25916 11.8311 8.25916C12.863 8.25916 13.2751 8.9517 13.2751 9.96853V14.0118H16.1262V9.67666C16.1262 7.35426 14.7203 6.27466 12.844 6.27466C11.3311 6.27466 10.6531 7.00695 10.2731 7.52269V7.54884H10.2541C10.2604 7.54011 10.2667 7.53139 10.2731 7.52269V6.45355H7.42306C7.45869 7.16282 7.42306 14.0118 7.42306 14.0118H10.2731Z" fill="black"/>
</svg>
