<svg width="19" height="15" viewBox="0 0 19 15" fill="none" xmlns="http://www.w3.org/2000/svg">
<path d="M5.96838 14.8082C13.1385 14.8082 17.0608 9.44052 17.0608 4.79383C17.0608 4.64362 17.0608 4.49127 17.0537 4.34107C17.8173 3.84162 18.4764 3.22328 19 2.51501C18.2867 2.79916 17.5308 2.98644 16.7568 3.07076C17.5721 2.63049 18.1827 1.93776 18.4751 1.12132C17.7092 1.5313 16.8708 1.8191 15.9968 1.97212C15.4092 1.40673 14.6317 1.03218 13.7846 0.906481C12.9375 0.780781 12.0682 0.910949 11.3113 1.27682C10.5544 1.64269 9.95221 2.22385 9.59791 2.93028C9.24361 3.63671 9.15703 4.42897 9.35156 5.18436C7.80157 5.11414 6.28522 4.75034 4.90086 4.11656C3.51651 3.48277 2.29506 2.59316 1.31575 1.50542C0.818591 2.28121 0.666869 3.19887 0.891392 4.07206C1.11592 4.94525 1.69985 5.7085 2.52463 6.20683C1.90658 6.18786 1.30212 6.03791 0.76 5.76909V5.81737C0.761066 6.63006 1.07268 7.4175 1.64216 8.04658C2.21165 8.67566 3.00408 9.10779 3.8855 9.26994C3.55094 9.35321 3.20534 9.39472 2.85831 9.39332C2.61367 9.39399 2.36951 9.37351 2.12919 9.33216C2.37831 10.0317 2.86339 10.6434 3.51648 11.0815C4.16957 11.5196 4.95797 11.7621 5.77125 11.7751C4.38966 12.7555 2.68304 13.2873 0.92625 13.2847C0.616693 13.2859 0.307352 13.2698 0 13.2364C1.78305 14.2635 3.85379 14.8088 5.96838 14.8082Z" fill="black"/>
</svg>
