<svg width="40" height="38" viewBox="0 0 40 38" fill="none" xmlns="http://www.w3.org/2000/svg">
<path fill-rule="evenodd" clip-rule="evenodd" d="M20 0C16.7006 0.0103869 13.5137 1.20504 11.015 3.36816C9.1 5.02463 7.7125 7.18306 7.355 9.34902C3.165 10.2776 0 13.942 0 18.3667C0 23.5068 4.27 27.6078 9.4525 27.6078H18.75V14.3235L13.385 19.712C13.1503 19.9476 12.8319 20.08 12.5 20.08C12.1681 20.08 11.8497 19.9476 11.615 19.712C11.3803 19.4764 11.2484 19.1568 11.2484 18.8235C11.2484 18.4903 11.3803 18.1707 11.615 17.9351L19.115 10.4056C19.2311 10.2888 19.3691 10.1961 19.5209 10.1328C19.6728 10.0695 19.8356 10.037 20 10.037C20.1644 10.037 20.3272 10.0695 20.4791 10.1328C20.6309 10.1961 20.7689 10.2888 20.885 10.4056L28.385 17.9351C28.6197 18.1707 28.7516 18.4903 28.7516 18.8235C28.7516 19.1568 28.6197 19.4764 28.385 19.712C28.1503 19.9476 27.8319 20.08 27.5 20.08C27.1681 20.08 26.8497 19.9476 26.615 19.712L21.25 14.3235V27.6078H31.72C36.255 27.6078 40 24.0188 40 19.5087C40 15.4027 36.895 12.0571 32.915 11.4924C32.3075 5.0171 26.725 0 20 0ZM18.75 36.3922V27.6078H21.25V36.3922C21.25 36.725 21.1183 37.0442 20.8839 37.2795C20.6495 37.5149 20.3315 37.6471 20 37.6471C19.6685 37.6471 19.3505 37.5149 19.1161 37.2795C18.8817 37.0442 18.75 36.725 18.75 36.3922Z" fill="white"/>
</svg>
