<svg width="38" height="38" viewBox="0 0 38 38" fill="none" xmlns="http://www.w3.org/2000/svg">
<path d="M19 37C28.9 37 37 28.9 37 19C37 9.1 28.9 1 19 1C9.1 1 1 9.1 1 19C1 28.9 9.1 37 19 37Z" fill="#FCF4E8" stroke="black" stroke-width="2" stroke-linecap="round" stroke-linejoin="round"/>
<path d="M21.1874 12.2493H16.8134C14.2754 12.2493 14.0796 14.5308 15.4499 15.7728L22.5509 22.2258C23.9211 23.4678 23.7254 25.7493 21.1874 25.7493H16.8134C14.2754 25.7493 14.0796 23.4678 15.4499 22.2258L22.5509 15.7728C23.9211 14.5308 23.7254 12.2493 21.1874 12.2493Z" stroke="#292D32" stroke-width="1.5" stroke-linecap="round" stroke-linejoin="round"/>
</svg>
