<svg width="36" height="36" viewBox="0 0 36 36" fill="none" xmlns="http://www.w3.org/2000/svg">
<path d="M10.5 18.24H14.52C15.585 18.24 16.305 19.05 16.305 20.025V22.2601C16.305 23.2351 15.585 24.0451 14.52 24.0451H12.285C11.31 24.0451 10.5 23.2351 10.5 22.2601V18.24Z" stroke="#292D32" stroke-width="1.5" stroke-linecap="round" stroke-linejoin="round"/>
<path d="M10.5 18.2401C10.5 14.0551 11.28 13.3501 13.635 11.9551" stroke="#292D32" stroke-width="1.5" stroke-linecap="round" stroke-linejoin="round"/>
<path d="M19.71 18.24H23.73C24.795 18.24 25.515 19.05 25.515 20.025V22.2601C25.515 23.2351 24.795 24.0451 23.73 24.0451H21.495C20.52 24.0451 19.71 23.2351 19.71 22.2601V18.24Z" stroke="#292D32" stroke-width="1.5" stroke-linecap="round" stroke-linejoin="round"/>
<path d="M19.71 18.2401C19.71 14.0551 20.49 13.3501 22.845 11.9551" stroke="#292D32" stroke-width="1.5" stroke-linecap="round" stroke-linejoin="round"/>
<path d="M18 33C26.2843 33 33 26.2843 33 18C33 9.71573 26.2843 3 18 3C9.71573 3 3 9.71573 3 18C3 26.2843 9.71573 33 18 33Z" stroke="#292D32" stroke-width="1.5" stroke-linecap="round" stroke-linejoin="round"/>
</svg>
