<svg width="36" height="36" viewBox="0 0 36 36" fill="none" xmlns="http://www.w3.org/2000/svg">
<path d="M17.9998 33C26.2498 33 32.9998 26.25 32.9998 18C32.9998 9.75 26.2498 3 17.9998 3C9.74976 3 2.99976 9.75 2.99976 18C2.99976 26.25 9.74976 33 17.9998 33Z" fill="#EE9898" stroke="black" stroke-width="2" stroke-linecap="round" stroke-linejoin="round"/>
<path d="M13.755 23.37C13.47 23.37 13.185 23.265 12.96 23.04C12.525 22.605 12.525 21.885 12.96 21.45L21.45 12.96C21.885 12.525 22.605 12.525 23.04 12.96C23.475 13.395 23.475 14.115 23.04 14.55L14.55 23.04C14.34 23.265 14.04 23.37 13.755 23.37Z" fill="#292D32"/>
<path d="M22.245 23.37C21.96 23.37 21.675 23.265 21.45 23.04L12.96 14.55C12.525 14.115 12.525 13.395 12.96 12.96C13.395 12.525 14.115 12.525 14.55 12.96L23.04 21.45C23.475 21.885 23.475 22.605 23.04 23.04C22.815 23.265 22.53 23.37 22.245 23.37Z" fill="#292D32"/>
</svg>
