<svg width="38" height="38" viewBox="0 0 38 38" fill="none" xmlns="http://www.w3.org/2000/svg">
<path d="M19 37C28.9 37 37 28.9 37 19C37 9.1 28.9 1 19 1C9.1 1 1 9.1 1 19C1 28.9 9.1 37 19 37Z" fill="#3E86E1" stroke="black" stroke-width="2" stroke-linecap="round" stroke-linejoin="round"/>
<path d="M20.2988 9.89613C20.0071 9.84362 19.75 10.0763 19.75 10.3727V13.3182C19.75 13.5151 19.8692 13.6888 20.0321 13.7994C20.5374 14.1427 20.87 14.7307 20.87 15.4V17.4444C20.87 18.4973 20.03 19.3662 19 19.3662C17.96 19.3662 17.12 18.4973 17.12 17.4444V15.4C17.12 14.7305 17.46 14.1424 17.9677 13.7991C18.1309 13.6889 18.25 13.5151 18.25 13.3182V10.3733C18.25 10.0767 17.9928 9.84395 17.7009 9.8966C16.1518 10.176 14.7656 10.9374 13.7 12.0267C12.34 13.4169 11.5 15.3387 11.5 17.4444V22.5556C11.5 26.7773 14.87 30.2222 19 30.2222C23.13 30.2222 26.5 26.7773 26.5 22.5556V17.4444C26.5 13.6723 23.8135 10.5289 20.2988 9.89613Z" fill="#FCF4E8"/>
</svg>
