<?xml version="1.0" standalone="no"?>
<!DOCTYPE svg PUBLIC "-//W3C//DTD SVG 20010904//EN"
 "http://www.w3.org/TR/2001/REC-SVG-20010904/DTD/svg10.dtd">
<svg version="1.0" xmlns="http://www.w3.org/2000/svg"
 width="700.000000pt" height="700.000000pt" viewBox="0 0 700.000000 700.000000"
 preserveAspectRatio="xMidYMid meet">
<metadata>
Created by potrace 1.14, written by Peter Selinger 2001-2017
</metadata>
<g transform="translate(0.000000,700.000000) scale(0.100000,-0.100000)"
fill="#000000" stroke="none">
<path d="M3275 6994 c-778 -63 -1458 -337 -2030 -819 -148 -125 -390 -375
-499 -515 -403 -521 -634 -1073 -723 -1730 -22 -169 -26 -665 -5 -830 73 -581
265 -1096 582 -1564 590 -872 1532 -1429 2582 -1527 166 -15 633 -6 783 15
768 110 1433 435 1979 966 568 553 918 1246 1032 2045 21 152 30 619 14 783
-101 1053 -654 1989 -1526 2579 -477 323 -995 513 -1589 583 -93 11 -513 21
-600 14z m1004 -919 c29 -17 90 -117 378 -615 190 -327 358 -623 375 -657 27
-57 28 -65 18 -105 -17 -61 -344 -626 -385 -665 -28 -27 -43 -33 -78 -33 -23
0 -58 8 -77 18 -45 24 -83 94 -74 137 3 17 75 150 160 297 85 147 154 271 154
275 0 4 -139 249 -309 543 l-309 535 -632 0 -632 0 -309 -535 c-170 -294 -309
-538 -309 -543 0 -4 140 -251 311 -547 l312 -540 684 0 c726 0 713 1 754 -46
9 -11 151 -251 314 -534 163 -283 323 -558 355 -610 101 -165 101 -189 -2
-360 -35 -58 -198 -339 -363 -625 -291 -503 -302 -521 -345 -542 l-44 -23
-726 0 c-680 0 -727 2 -765 19 -48 21 -75 56 -138 174 -26 48 -182 321 -347
606 -165 286 -303 533 -306 550 -4 16 -1 44 5 62 6 17 89 167 183 332 192 333
199 341 284 334 57 -4 95 -27 120 -73 33 -60 19 -98 -140 -371 -80 -139 -146
-256 -146 -261 0 -4 139 -249 309 -543 l308 -534 623 -9 c518 -7 624 -6 635 5
14 14 585 998 612 1055 l15 31 -313 541 -313 542 -698 2 -698 3 -29 30 c-29
29 -703 1185 -743 1274 -13 28 -18 55 -15 76 3 18 149 282 325 587 176 304
330 573 342 598 43 84 81 131 124 151 39 18 73 19 776 16 715 -2 736 -3 769
-22z m-1187 -525 c158 -44 179 -259 33 -330 -50 -24 -93 -25 -142 -5 -50 21
-72 42 -94 90 -24 53 -24 99 2 152 23 48 57 76 109 91 46 13 49 14 92 2z m865
-2505 c50 -21 72 -42 94 -90 62 -135 -59 -283 -200 -245 -82 22 -131 86 -131
170 0 129 122 213 237 165z"/>
</g>
</svg>
