<?xml version="1.0" encoding="UTF-8" standalone="no"?>
<!-- Generator: Adobe Illustrator 15.0.2, SVG Export Plug-In . SVG Version: 6.00 Build 0)  -->

<svg
   version="1.1"
   id="Livello_1"
   x="0px"
   y="0px"
   width="490.81201"
   height="152.67999"
   viewBox="0 0 490.81202 152.68"
   enable-background="new 0 0 566.93 566.93"
   xml:space="preserve"
   sodipodi:docname="logo_lettering.svg"
   inkscape:version="1.2.1 (9c6d41e, 2022-07-14)"
   xmlns:inkscape="http://www.inkscape.org/namespaces/inkscape"
   xmlns:sodipodi="http://sodipodi.sourceforge.net/DTD/sodipodi-0.dtd"
   xmlns:xlink="http://www.w3.org/1999/xlink"
   xmlns="http://www.w3.org/2000/svg"
   xmlns:svg="http://www.w3.org/2000/svg"><defs
   id="defs165"><linearGradient
     inkscape:collect="always"
     id="linearGradient915"><stop
       style="stop-color:#f29100;stop-opacity:1;"
       offset="0"
       id="stop911" /><stop
       style="stop-color:#e5007e;stop-opacity:1;"
       offset="1"
       id="stop913" /></linearGradient><linearGradient
     inkscape:collect="always"
     xlink:href="#linearGradient915"
     id="linearGradient6704"
     x1="-1.0776087"
     y1="75.844894"
     x2="491.73444"
     y2="75.844894"
     gradientUnits="userSpaceOnUse"
     spreadMethod="repeat"
     gradientTransform="translate(0.07760877,0.4952)" /></defs><sodipodi:namedview
   id="namedview163"
   pagecolor="#505050"
   bordercolor="#eeeeee"
   borderopacity="1"
   inkscape:showpageshadow="0"
   inkscape:pageopacity="0"
   inkscape:pagecheckerboard="0"
   inkscape:deskcolor="#505050"
   showgrid="true"
   inkscape:zoom="3.711093"
   inkscape:cx="97.814847"
   inkscape:cy="94.985492"
   inkscape:window-width="1800"
   inkscape:window-height="1097"
   inkscape:window-x="0"
   inkscape:window-y="142"
   inkscape:window-maximized="0"
   inkscape:current-layer="Livello_1"><inkscape:grid
     type="xygrid"
     id="grid9976"
     originx="0"
     originy="0" /></sodipodi:namedview>
<rect
   style="display:inline;fill:#ffffff;fill-opacity:1;stroke:url(#linearGradient6704);stroke-width:3;stroke-dasharray:none;stroke-opacity:1"
   id="rect9029"
   width="487.81204"
   height="149.68019"
   x="1.5"
   y="1.5"
   ry="19.76166" /><g
   id="g160"
   transform="translate(9.4598732,8.398544)">
	
	<g
   id="g158"
   transform="translate(-48.108934,-215.3714)">
		<linearGradient
   id="SVGID_12_"
   gradientUnits="userSpaceOnUse"
   x1="48.559101"
   y1="283.46481"
   x2="518.37109"
   y2="283.46481">
			<stop
   offset="0"
   style="stop-color:#F29100"
   id="stop81" />
			<stop
   offset="1"
   style="stop-color:#E5007E"
   id="stop83" />
		</linearGradient>
		<path
   fill="url(#SVGID_12_)"
   d="m 190.411,282.012 c -3.899,-3.415 -10.069,-5.929 -18.512,-7.541 -4.061,-0.773 -6.913,-1.643 -8.557,-2.609 -1.643,-0.967 -2.465,-2.224 -2.465,-3.771 0,-1.288 0.516,-2.32 1.547,-3.094 1.032,-0.773 2.448,-1.159 4.254,-1.159 2.063,0 3.658,0.565 4.785,1.692 1.127,1.128 1.693,2.754 1.693,4.882 h 21.848 c -0.065,-4.705 -1.273,-8.812 -3.625,-12.326 -2.352,-3.514 -5.672,-6.203 -9.959,-8.073 -4.285,-1.868 -9.329,-2.804 -15.127,-2.804 -8.508,0 -15.194,1.902 -20.061,5.705 -4.866,3.803 -7.299,9.022 -7.299,15.66 0,5.931 1.9,10.635 5.703,14.115 3.803,3.479 9.7,5.896 17.692,7.25 3.867,0.645 6.687,1.499 8.459,2.562 1.771,1.062 2.659,2.434 2.659,4.107 0,1.354 -0.518,2.402 -1.547,3.142 -1.032,0.742 -2.481,1.112 -4.35,1.112 -2.191,0 -3.868,-0.58 -5.027,-1.74 -1.159,-1.159 -1.741,-2.835 -1.741,-5.026 h -22.332 c 0,7.477 2.562,13.292 7.686,17.449 5.124,4.157 12.293,6.236 21.51,6.236 9.022,0 16.047,-1.935 21.075,-5.801 5.027,-3.867 7.541,-9.248 7.541,-16.146 -0.001,-5.797 -1.951,-10.404 -5.85,-13.822 z"
   id="path86"
   style="fill:url(#SVGID_12_)" />
		<linearGradient
   id="SVGID_13_"
   gradientUnits="userSpaceOnUse"
   x1="48.559101"
   y1="283.46481"
   x2="518.37109"
   y2="283.46481">
			<stop
   offset="0"
   style="stop-color:#F29100"
   id="stop88" />
			<stop
   offset="1"
   style="stop-color:#E5007E"
   id="stop90" />
		</linearGradient>
		<path
   fill="url(#SVGID_13_)"
   d="m 237.393,298.302 c -1.579,1.063 -3.432,1.595 -5.558,1.595 -2.708,0 -4.883,-0.854 -6.527,-2.562 -1.643,-1.708 -2.465,-3.947 -2.465,-6.719 0,-2.836 0.822,-5.107 2.465,-6.814 1.645,-1.708 3.819,-2.562 6.527,-2.562 1.996,0 3.752,0.45 5.268,1.353 1.515,0.903 2.69,2.223 3.528,3.963 h 20.399 c -0.581,-4.639 -2.193,-8.7 -4.834,-12.18 -2.644,-3.48 -6.108,-6.17 -10.394,-8.072 -4.286,-1.899 -9.104,-2.852 -14.451,-2.852 -5.801,0 -10.974,1.145 -15.516,3.432 -4.545,2.289 -8.09,5.496 -10.634,9.618 -2.546,4.126 -3.819,8.831 -3.819,14.115 0,5.285 1.257,9.989 3.771,14.113 2.514,4.126 6.042,7.333 10.585,9.62 4.544,2.286 9.747,3.433 15.613,3.433 5.477,0 10.358,-0.968 14.646,-2.901 4.285,-1.933 7.766,-4.704 10.44,-8.313 2.674,-3.609 4.302,-7.83 4.883,-12.664 h -20.496 c -0.709,1.867 -1.852,3.332 -3.431,4.397 z"
   id="path93"
   style="fill:url(#SVGID_13_)" />
		<linearGradient
   id="SVGID_14_"
   gradientUnits="userSpaceOnUse"
   x1="48.559101"
   y1="283.46481"
   x2="518.37109"
   y2="283.46481">
			<stop
   offset="0"
   style="stop-color:#F29100"
   id="stop95" />
			<stop
   offset="1"
   style="stop-color:#E5007E"
   id="stop97" />
		</linearGradient>
		<path
   fill="url(#SVGID_14_)"
   d="m 293.269,266.303 c -2.416,1 -4.462,2.596 -6.138,4.785 l -2.418,-6.284 h -15.66 v 51.527 h 22.041 V 295.45 c 0,-3.736 0.837,-6.509 2.514,-8.314 1.675,-1.804 4.383,-2.706 8.12,-2.706 h 6.769 v -19.625 h -6.574 c -3.354,-0.001 -6.236,0.501 -8.654,1.498 z"
   id="path100"
   style="fill:url(#SVGID_14_)" />
		<linearGradient
   id="SVGID_15_"
   gradientUnits="userSpaceOnUse"
   x1="48.559101"
   y1="283.46481"
   x2="518.37109"
   y2="283.46481">
			<stop
   offset="0"
   style="stop-color:#F29100"
   id="stop102" />
			<stop
   offset="1"
   style="stop-color:#E5007E"
   id="stop104" />
		</linearGradient>
		<rect
   x="316.61499"
   y="264.80399"
   fill="url(#SVGID_15_)"
   width="22.040001"
   height="51.527"
   id="rect107"
   style="fill:url(#SVGID_15_)" />
		<linearGradient
   id="SVGID_16_"
   gradientUnits="userSpaceOnUse"
   x1="48.559101"
   y1="283.46481"
   x2="518.37109"
   y2="283.46481">
			<stop
   offset="0"
   style="stop-color:#F29100"
   id="stop109" />
			<stop
   offset="1"
   style="stop-color:#E5007E"
   id="stop111" />
		</linearGradient>
		<path
   fill="url(#SVGID_16_)"
   d="m 327.635,234.739 c -3.803,0 -6.863,1.112 -9.184,3.336 -2.32,2.224 -3.48,5.14 -3.48,8.749 0,3.609 1.16,6.542 3.48,8.796 2.32,2.258 5.381,3.385 9.184,3.385 3.736,0 6.768,-1.127 9.088,-3.385 2.32,-2.255 3.479,-5.187 3.479,-8.796 0,-3.609 -1.159,-6.525 -3.479,-8.749 -2.321,-2.224 -5.352,-3.336 -9.088,-3.336 z"
   id="path114"
   style="fill:url(#SVGID_16_)" />
		<linearGradient
   id="SVGID_17_"
   gradientUnits="userSpaceOnUse"
   x1="48.559101"
   y1="283.46481"
   x2="518.37109"
   y2="283.46481">
			<stop
   offset="0"
   style="stop-color:#F29100"
   id="stop116" />
			<stop
   offset="1"
   style="stop-color:#E5007E"
   id="stop118" />
		</linearGradient>
		<path
   fill="url(#SVGID_17_)"
   d="m 398.593,266.883 c -3.932,-2.287 -8.476,-3.432 -13.631,-3.432 -7.091,0 -12.955,2.16 -17.595,6.478 l -2.03,-5.125 h -15.66 v 70.862 h 22.041 v -21.269 c 3.866,2.191 8.281,3.286 13.244,3.286 5.155,0 9.699,-1.128 13.631,-3.383 3.931,-2.255 6.993,-5.43 9.184,-9.522 2.19,-4.091 3.287,-8.812 3.287,-14.162 0,-5.348 -1.097,-10.069 -3.287,-14.162 -2.19,-4.093 -5.254,-7.282 -9.184,-9.571 z m -11.553,30.452 c -1.707,1.708 -3.947,2.562 -6.719,2.562 -2.771,0 -4.994,-0.854 -6.67,-2.562 -1.677,-1.708 -2.514,-3.947 -2.514,-6.719 0,-2.836 0.837,-5.107 2.514,-6.814 1.676,-1.708 3.899,-2.562 6.67,-2.562 2.771,0 5.012,0.869 6.719,2.609 1.707,1.74 2.563,3.997 2.563,6.767 10e-4,2.772 -0.856,5.011 -2.563,6.719 z"
   id="path121"
   style="fill:url(#SVGID_17_)" />
		<linearGradient
   id="SVGID_18_"
   gradientUnits="userSpaceOnUse"
   x1="48.559101"
   y1="283.46481"
   x2="518.37109"
   y2="283.46481">
			<stop
   offset="0"
   style="stop-color:#F29100"
   id="stop123" />
			<stop
   offset="1"
   style="stop-color:#E5007E"
   id="stop125" />
		</linearGradient>
		<path
   fill="url(#SVGID_18_)"
   d="m 446.786,296.658 c -1.193,-1.127 -1.789,-2.916 -1.789,-5.364 v -9.571 h 11.794 V 264.804 H 444.997 V 251.27 h -17.11 l -1.063,6.478 c -0.324,1.932 -0.759,3.399 -1.306,4.398 -0.549,1 -1.371,1.691 -2.465,2.077 -1.098,0.388 -2.675,0.58 -4.737,0.58 h -4.544 v 17.015 h 9.184 v 13.92 c 0,6.833 1.918,11.973 5.754,15.42 3.832,3.448 9.553,5.172 17.157,5.172 h 11.506 v -17.98 h -4.932 c -2.578,0 -4.463,-0.564 -5.655,-1.692 z"
   id="path128"
   style="fill:url(#SVGID_18_)" />
		<linearGradient
   id="SVGID_19_"
   gradientUnits="userSpaceOnUse"
   x1="48.559101"
   y1="283.46481"
   x2="518.37109"
   y2="283.46481">
			<stop
   offset="0"
   style="stop-color:#F29100"
   id="stop130" />
			<stop
   offset="1"
   style="stop-color:#E5007E"
   id="stop132" />
		</linearGradient>
		<path
   fill="url(#SVGID_19_)"
   d="m 511.409,269.542 c -4.64,-4.06 -11.31,-6.09 -20.01,-6.09 -7.671,0 -13.713,1.595 -18.127,4.784 -4.415,3.191 -7.009,7.88 -7.781,14.066 h 20.301 c 0.127,-1.288 0.709,-2.32 1.739,-3.093 1.03,-0.773 2.287,-1.159 3.771,-1.159 1.61,0 2.948,0.435 4.013,1.304 1.063,0.871 1.594,1.95 1.594,3.238 v 3.094 h -16.433 c -5.352,0 -9.604,1.435 -12.761,4.302 -3.16,2.868 -4.738,6.686 -4.738,11.454 0,4.964 1.741,8.895 5.22,11.796 3.481,2.899 8.219,4.35 14.212,4.35 3.674,0 7.041,-0.579 10.104,-1.74 3.059,-1.159 5.687,-2.867 7.878,-5.123 l 2.224,5.606 h 15.758 v -29.098 c -0.002,-7.734 -2.322,-13.631 -6.964,-17.691 z m -14.211,26.971 c 0,2.257 -0.71,4.061 -2.126,5.414 -1.418,1.354 -3.287,2.029 -5.607,2.029 -1.677,0 -2.997,-0.369 -3.964,-1.111 -0.966,-0.739 -1.449,-1.723 -1.449,-2.948 0,-1.223 0.483,-2.206 1.449,-2.949 0.967,-0.738 2.287,-1.111 3.964,-1.111 h 7.733 z"
   id="path135"
   style="fill:url(#SVGID_19_)" />
		<linearGradient
   id="SVGID_20_"
   gradientUnits="userSpaceOnUse"
   x1="48.559101"
   y1="283.46481"
   x2="518.37109"
   y2="283.46481">
			<stop
   offset="0"
   style="stop-color:#F29100"
   id="stop137" />
			<stop
   offset="1"
   style="stop-color:#E5007E"
   id="stop139" />
		</linearGradient>
		<path
   fill="url(#SVGID_20_)"
   d="m 120.921,298.475 c -3.256,-5.635 -6.511,-11.274 -9.765,-16.908 -0.653,-1.134 -1.921,-1.866 -3.229,-1.866 -11.632,0 -23.263,0 -34.895,0 -5.448,-9.436 -10.896,-18.87 -16.344,-28.308 5.448,-9.436 10.896,-18.871 16.344,-28.309 10.896,0 21.792,0 32.688,0 5.447,9.439 10.896,18.874 16.344,28.31 -2.613,4.522 -5.223,9.045 -7.834,13.569 -2.437,4.222 4.101,7.994 6.538,3.774 2.59,-4.488 5.182,-8.976 7.771,-13.462 1.091,-1.885 2.357,-3.684 1.069,-5.917 -0.799,-1.384 -1.597,-2.768 -2.395,-4.153 -5.353,-9.269 -10.705,-18.537 -16.058,-27.809 -0.653,-1.13 -1.921,-1.863 -3.229,-1.863 -6.286,0 -12.572,0 -18.857,0 -4.259,0 -8.516,0 -12.773,0 -2.053,0 -5.467,-0.589 -7.354,0.518 -1.768,1.035 -2.86,3.972 -3.826,5.643 -2.099,3.634 -4.196,7.268 -6.292,10.9 -3.254,5.635 -6.511,11.274 -9.764,16.909 -0.679,1.172 -0.664,2.631 0.012,3.8 6.175,10.695 12.35,21.391 18.524,32.083 0.223,0.386 0.486,0.683 0.768,0.939 0.091,0.087 0.176,0.175 0.279,0.249 0.096,0.073 0.198,0.121 0.298,0.18 0.109,0.064 0.215,0.135 0.337,0.188 0.103,0.044 0.207,0.068 0.312,0.101 0.373,0.121 0.773,0.209 1.236,0.209 11.63,0 23.263,0 34.894,0 5.449,9.435 10.896,18.87 16.344,28.309 -5.447,9.434 -10.896,18.87 -16.342,28.305 -10.896,0 -21.793,0 -32.689,0 -5.448,-9.435 -10.896,-18.871 -16.344,-28.309 2.514,-4.354 5.029,-8.708 7.543,-13.062 2.436,-4.22 -4.103,-7.997 -6.538,-3.775 -2.878,4.981 -5.755,9.969 -8.632,14.952 -0.679,1.17 -0.664,2.631 0.012,3.798 3.142,5.444 6.288,10.889 9.43,16.333 2.127,3.688 4.257,7.373 6.387,11.061 1.022,1.771 2.189,4.959 4.077,6.047 1.779,1.03 4.859,0.508 6.795,0.508 4.194,0 8.391,0 12.584,0 6.509,0 13.018,0 19.527,0 1.35,0 2.62,-0.719 3.297,-1.889 3.144,-5.442 6.286,-10.887 9.428,-16.331 2.129,-3.686 4.259,-7.373 6.387,-11.061 1.02,-1.769 3.201,-4.38 3.214,-6.552 0.016,-2.065 -2.012,-4.529 -2.984,-6.213 -2.101,-3.632 -4.198,-7.266 -6.295,-10.898 z"
   id="path142"
   style="fill:url(#SVGID_20_)" />
		<linearGradient
   id="SVGID_21_"
   gradientUnits="userSpaceOnUse"
   x1="48.559101"
   y1="283.46481"
   x2="518.37109"
   y2="283.46481">
			<stop
   offset="0"
   style="stop-color:#F29100"
   id="stop144" />
			<stop
   offset="1"
   style="stop-color:#E5007E"
   id="stop146" />
		</linearGradient>
		<circle
   fill="url(#SVGID_21_)"
   cx="77.575996"
   cy="234.371"
   r="4.7360001"
   id="circle149"
   style="fill:url(#SVGID_21_)" />
		<linearGradient
   id="SVGID_22_"
   gradientUnits="userSpaceOnUse"
   x1="48.559101"
   y1="283.46481"
   x2="518.37109"
   y2="283.46481">
			<stop
   offset="0"
   style="stop-color:#F29100"
   id="stop151" />
			<stop
   offset="1"
   style="stop-color:#E5007E"
   id="stop153" />
		</linearGradient>
		<path
   fill="url(#SVGID_22_)"
   d="m 104.395,299.643 c 0,-2.618 -2.122,-4.736 -4.738,-4.736 -2.614,0 -4.736,2.118 -4.736,4.736 0,2.612 2.122,4.735 4.736,4.735 2.616,0 4.738,-2.123 4.738,-4.735 z"
   id="path156"
   style="fill:url(#SVGID_22_)" />
	</g>
</g>
</svg>
