<?xml version="1.0" encoding="UTF-8" standalone="no"?>
<!-- Generator: Adobe Illustrator 15.0.2, SVG Export Plug-In . SVG Version: 6.00 Build 0)  -->

<svg
   version="1.1"
   id="Livello_1"
   x="0px"
   y="0px"
   width="566.93px"
   height="566.93px"
   viewBox="0 0 566.93 566.93"
   enable-background="new 0 0 566.93 566.93"
   xml:space="preserve"
   sodipodi:docname="logo.svg"
   inkscape:version="1.2.1 (9c6d41e, 2022-07-14)"
   xmlns:inkscape="http://www.inkscape.org/namespaces/inkscape"
   xmlns:sodipodi="http://sodipodi.sourceforge.net/DTD/sodipodi-0.dtd"
   xmlns:xlink="http://www.w3.org/1999/xlink"
   xmlns="http://www.w3.org/2000/svg"
   xmlns:svg="http://www.w3.org/2000/svg">
   <defs
   id="defs98"><linearGradient
     inkscape:collect="always"
     id="linearGradient5588"><stop
       style="stop-color:#f29100;stop-opacity:1;"
       offset="0"
       id="stop5584" /><stop
       style="stop-color:#e5007e;stop-opacity:1;"
       offset="1"
       id="stop5586" /></linearGradient><linearGradient
     inkscape:collect="always"
     xlink:href="#linearGradient5588"
     id="linearGradient5590"
     x1="-308.83057"
     y1="176.39018"
     x2="38.60379"
     y2="176.39018"
     gradientUnits="userSpaceOnUse"
     gradientTransform="matrix(1,0,0,1.0033495,308.83058,-3.1372251)" /></defs>
   <sodipodi:namedview
   id="namedview96"
   pagecolor="#505050"
   bordercolor="#eeeeee"
   borderopacity="1"
   inkscape:showpageshadow="0"
   inkscape:pageopacity="0"
   inkscape:pagecheckerboard="0"
   inkscape:deskcolor="#505050"
   showgrid="false"
   showguides="false"
   inkscape:zoom="0.68940214"
   inkscape:cx="382.21523"
   inkscape:cy="344.5014"
   inkscape:window-width="1800"
   inkscape:window-height="1097"
   inkscape:window-x="0"
   inkscape:window-y="142"
   inkscape:window-maximized="0"
   inkscape:current-layer="g93"
   inkscape:lockguides="true" />
   <g
   id="g93"
   transform="matrix(1.632091,0,0,1.632091,0,-0.0173646)"
   style="stroke-width:0.612711">
      <linearGradient
   id="SVGID_1_"
   gradientUnits="userSpaceOnUse"
   x1="109.7969"
   y1="283.46481"
   x2="457.13281"
   y2="283.46481"
   gradientTransform="translate(-109.64074,-108.51227)">
         <stop
   offset="0"
   style="stop-color:#F29100"
   id="stop82" />
         <stop
   offset="1"
   style="stop-color:#E5007E"
   id="stop84" />
      </linearGradient>
      <ellipse
   style="fill:url(#linearGradient5590);fill-opacity:1;stroke-width:0.375415"
   id="path318"
   cx="173.71719"
   cy="173.84377"
   rx="173.71718"
   ry="173.63126"
   sodipodi:insensitive="true" /><path
   fill="url(#SVGID_1_)"
   d="m 347.49225,322.71074 c 0,14.312 -11.598,25.912 -25.91099,25.912 H 26.066257 c -14.312,0 -25.90999984,-11.6 -25.90999984,-25.912 V 27.191725 c 0,-14.308 11.59799984,-25.9089996 25.90999984,-25.9089996 H 321.58126 c 14.31299,0 25.91099,11.6009996 25.91099,25.9089996 z"
   id="path362"
   style="display:none;fill:url(#SVGID_1_);stroke-width:0.612711" />
      <g
   id="g257"
   transform="matrix(1.0000012,0,0,0.99999951,-109.79714,-109.7672)"
   style="display:inline;stroke-width:0.375414">
		<path
   fill="#ffffff"
   d="m 355.298,332.66 c -3.983,-6.898 -7.965,-13.797 -11.945,-20.695 -6.182,-10.699 -12.361,-21.404 -18.539,-32.105 -1.241,-2.149 -3.649,-3.541 -6.132,-3.541 -22.088,0 -44.168,0 -66.254,0 -10.342,-17.917 -20.687,-35.835 -31.03,-53.751 10.344,-17.916 20.688,-35.83 31.032,-53.746 20.688,0 41.378,0 62.064,0 10.344,17.92 20.688,35.836 31.03,53.751 -4.961,8.586 -9.919,17.173 -14.875,25.765 -4.626,8.011 7.788,15.178 12.414,7.165 4.917,-8.521 9.837,-17.041 14.755,-25.56 2.067,-3.583 4.476,-6.996 2.032,-11.233 -1.521,-2.627 -3.037,-5.255 -4.553,-7.883 -10.162,-17.601 -20.322,-35.199 -30.484,-52.801 -1.241,-2.149 -3.649,-3.539 -6.132,-3.539 -11.932,0 -23.866,0 -35.804,0 -8.086,0 -16.168,0 -24.251,0 -3.898,0 -10.38,-1.116 -13.965,0.985 -3.356,1.965 -5.432,7.54 -7.264,10.715 -3.983,6.898 -7.965,13.796 -11.946,20.691 -6.181,10.703 -12.36,21.408 -18.539,32.107 -1.285,2.227 -1.259,4.995 0.025,7.215 11.721,20.305 23.447,40.61 35.171,60.915 0.412,0.714 0.902,1.269 1.422,1.751 0.185,0.174 0.358,0.355 0.566,0.508 0.174,0.129 0.36,0.218 0.539,0.322 0.218,0.131 0.428,0.27 0.665,0.371 0.189,0.082 0.39,0.129 0.583,0.189 0.709,0.236 1.478,0.399 2.354,0.399 22.083,0 44.172,0 66.255,0 10.344,17.915 20.688,35.831 31.03,53.745 -10.345,17.916 -20.687,35.832 -31.03,53.746 -20.691,0 -41.377,0 -62.066,0 -10.342,-17.914 -20.687,-35.83 -31.03,-53.75 4.774,-8.266 9.549,-16.533 14.32,-24.801 4.626,-8.014 -7.788,-15.18 -12.414,-7.166 -5.466,9.461 -10.928,18.922 -16.391,28.387 -1.285,2.227 -1.259,4.992 0.025,7.213 5.967,10.336 11.937,20.674 17.902,31.01 4.04,7 8.083,14 12.128,21 1.942,3.363 4.158,9.416 7.74,11.484 3.377,1.949 9.226,0.963 12.9,0.963 7.964,0 15.93,0 23.895,0 12.36,0 24.716,0 37.073,0 2.563,0 4.977,-1.363 6.261,-3.588 5.967,-10.334 11.934,-20.672 17.9,-31.006 4.045,-7.002 8.085,-14.002 12.128,-21 1.934,-3.357 6.076,-8.316 6.099,-12.439 0.034,-3.924 -3.816,-8.596 -5.664,-11.793 z"
   id="path251"
   style="display:inline;stroke-width:0.293859" />
		<path
   fill="#ffffff"
   d="m 252.062,190.253 c 0,4.963 4.026,8.99 8.993,8.99 4.969,0 8.993,-4.027 8.993,-8.99 0,-4.969 -4.024,-8.994 -8.993,-8.994 -4.966,0 -8.993,4.026 -8.993,8.994 z"
   id="path253"
   style="display:inline;stroke-width:0.293859" />
		<path
   fill="#ffffff"
   d="m 311.976,314.182 c 0,-4.969 -4.026,-8.996 -8.993,-8.996 -4.966,0 -8.992,4.027 -8.992,8.996 0,4.963 4.026,8.99 8.992,8.99 4.966,0 8.993,-4.027 8.993,-8.99 z"
   id="path255"
   style="stroke-width:0.293859" />
	</g>
   </g>
</svg>
