<?xml version="1.0" encoding="utf-8"?>
<!-- Generator: Adobe Illustrator 15.0.2, SVG Export Plug-In . SVG Version: 6.00 Build 0)  -->
<!DOCTYPE svg PUBLIC "-//W3C//DTD SVG 1.1//EN" "http://www.w3.org/Graphics/SVG/1.1/DTD/svg11.dtd">
<svg version="1.1" id="Livello_1" xmlns="http://www.w3.org/2000/svg" xmlns:xlink="http://www.w3.org/1999/xlink" x="0px" y="0px"
	 width="566.93px" height="566.93px" viewBox="0 0 566.93 566.93" enable-background="new 0 0 566.93 566.93" xml:space="preserve">
<g>
	<g>
		<linearGradient id="SVGID_1_" gradientUnits="userSpaceOnUse" x1="138.4487" y1="282.4961" x2="196.2603" y2="282.4961">
			<stop  offset="0" style="stop-color:#F29100"/>
			<stop  offset="1" style="stop-color:#E5007E"/>
		</linearGradient>
		<path fill="url(#SVGID_1_)" d="M190.411,282.012c-3.899-3.415-10.069-5.929-18.512-7.541c-4.061-0.773-6.913-1.643-8.557-2.609
			c-1.643-0.967-2.465-2.224-2.465-3.771c0-1.288,0.516-2.32,1.547-3.094c1.032-0.773,2.448-1.159,4.254-1.159
			c2.063,0,3.658,0.565,4.785,1.692c1.127,1.128,1.693,2.754,1.693,4.882h21.848c-0.065-4.705-1.273-8.812-3.625-12.326
			s-5.672-6.203-9.959-8.073c-4.285-1.868-9.329-2.804-15.127-2.804c-8.508,0-15.194,1.902-20.061,5.705
			c-4.866,3.803-7.299,9.022-7.299,15.66c0,5.931,1.9,10.635,5.703,14.115c3.803,3.479,9.7,5.896,17.692,7.25
			c3.867,0.645,6.687,1.499,8.459,2.562c1.771,1.062,2.659,2.434,2.659,4.107c0,1.354-0.518,2.402-1.547,3.142
			c-1.032,0.742-2.481,1.112-4.35,1.112c-2.191,0-3.868-0.58-5.027-1.74c-1.159-1.159-1.741-2.835-1.741-5.026h-22.332
			c0,7.477,2.562,13.292,7.686,17.449s12.293,6.236,21.51,6.236c9.022,0,16.047-1.935,21.075-5.801
			c5.027-3.867,7.541-9.248,7.541-16.146C196.26,290.037,194.31,285.43,190.411,282.012z"/>
		<linearGradient id="SVGID_2_" gradientUnits="userSpaceOnUse" x1="201.3823" y1="290.6172" x2="261.3203" y2="290.6172">
			<stop  offset="0" style="stop-color:#F29100"/>
			<stop  offset="1" style="stop-color:#E5007E"/>
		</linearGradient>
		<path fill="url(#SVGID_2_)" d="M237.393,298.302c-1.579,1.063-3.432,1.595-5.558,1.595c-2.708,0-4.883-0.854-6.527-2.562
			c-1.643-1.708-2.465-3.947-2.465-6.719c0-2.836,0.822-5.107,2.465-6.814c1.645-1.708,3.819-2.562,6.527-2.562
			c1.996,0,3.752,0.45,5.268,1.353c1.515,0.903,2.69,2.223,3.528,3.963h20.399c-0.581-4.639-2.193-8.7-4.834-12.18
			c-2.644-3.48-6.108-6.17-10.394-8.072c-4.286-1.899-9.104-2.852-14.451-2.852c-5.801,0-10.974,1.145-15.516,3.432
			c-4.545,2.289-8.09,5.496-10.634,9.618c-2.546,4.126-3.819,8.831-3.819,14.115c0,5.285,1.257,9.989,3.771,14.113
			c2.514,4.126,6.042,7.333,10.585,9.62c4.544,2.286,9.747,3.433,15.613,3.433c5.477,0,10.358-0.968,14.646-2.901
			c4.285-1.933,7.766-4.704,10.44-8.313c2.674-3.609,4.302-7.83,4.883-12.664h-20.496
			C240.115,295.772,238.972,297.237,237.393,298.302z"/>
		<linearGradient id="SVGID_3_" gradientUnits="userSpaceOnUse" x1="269.0527" y1="290.5674" x2="308.4961" y2="290.5674">
			<stop  offset="0" style="stop-color:#F29100"/>
			<stop  offset="1" style="stop-color:#E5007E"/>
		</linearGradient>
		<path fill="url(#SVGID_3_)" d="M293.269,266.303c-2.416,1-4.462,2.596-6.138,4.785l-2.418-6.284h-15.66v51.527h22.041V295.45
			c0-3.736,0.837-6.509,2.514-8.314c1.675-1.804,4.383-2.706,8.12-2.706h6.769v-19.625h-6.574
			C298.569,264.804,295.687,265.306,293.269,266.303z"/>
		<linearGradient id="SVGID_4_" gradientUnits="userSpaceOnUse" x1="316.6152" y1="290.5674" x2="338.6553" y2="290.5674">
			<stop  offset="0" style="stop-color:#F29100"/>
			<stop  offset="1" style="stop-color:#E5007E"/>
		</linearGradient>
		<rect x="316.615" y="264.804" fill="url(#SVGID_4_)" width="22.04" height="51.527"/>
		<linearGradient id="SVGID_5_" gradientUnits="userSpaceOnUse" x1="314.9707" y1="246.8721" x2="340.2021" y2="246.8721">
			<stop  offset="0" style="stop-color:#F29100"/>
			<stop  offset="1" style="stop-color:#E5007E"/>
		</linearGradient>
		<path fill="url(#SVGID_5_)" d="M327.635,234.739c-3.803,0-6.863,1.112-9.184,3.336c-2.32,2.224-3.48,5.14-3.48,8.749
			s1.16,6.542,3.48,8.796c2.32,2.258,5.381,3.385,9.184,3.385c3.736,0,6.768-1.127,9.088-3.385c2.32-2.255,3.479-5.187,3.479-8.796
			s-1.159-6.525-3.479-8.749C334.402,235.851,331.371,234.739,327.635,234.739z"/>
		<linearGradient id="SVGID_6_" gradientUnits="userSpaceOnUse" x1="349.6768" y1="299.5586" x2="411.0635" y2="299.5586">
			<stop  offset="0" style="stop-color:#F29100"/>
			<stop  offset="1" style="stop-color:#E5007E"/>
		</linearGradient>
		<path fill="url(#SVGID_6_)" d="M398.593,266.883c-3.932-2.287-8.476-3.432-13.631-3.432c-7.091,0-12.955,2.16-17.595,6.478
			l-2.03-5.125h-15.66v70.862h22.041v-21.269c3.866,2.191,8.281,3.286,13.244,3.286c5.155,0,9.699-1.128,13.631-3.383
			c3.931-2.255,6.993-5.43,9.184-9.522c2.19-4.091,3.287-8.812,3.287-14.162c0-5.348-1.097-10.069-3.287-14.162
			S402.523,269.172,398.593,266.883z M387.04,297.335c-1.707,1.708-3.947,2.562-6.719,2.562c-2.771,0-4.994-0.854-6.67-2.562
			c-1.677-1.708-2.514-3.947-2.514-6.719c0-2.836,0.837-5.107,2.514-6.814c1.676-1.708,3.899-2.562,6.67-2.562
			c2.771,0,5.012,0.869,6.719,2.609c1.707,1.74,2.563,3.997,2.563,6.767C389.604,293.388,388.747,295.627,387.04,297.335z"/>
		<linearGradient id="SVGID_7_" gradientUnits="userSpaceOnUse" x1="413.7715" y1="283.8008" x2="457.3721" y2="283.8008">
			<stop  offset="0" style="stop-color:#F29100"/>
			<stop  offset="1" style="stop-color:#E5007E"/>
		</linearGradient>
		<path fill="url(#SVGID_7_)" d="M446.786,296.658c-1.193-1.127-1.789-2.916-1.789-5.364v-9.571h11.794v-16.919h-11.794v-13.534
			h-17.11l-1.063,6.478c-0.324,1.932-0.759,3.399-1.306,4.398c-0.549,1-1.371,1.691-2.465,2.077c-1.098,0.388-2.675,0.58-4.737,0.58
			h-4.544v17.015h9.184v13.92c0,6.833,1.918,11.973,5.754,15.42c3.832,3.448,9.553,5.172,17.157,5.172h11.506V298.35h-4.932
			C449.863,298.35,447.978,297.786,446.786,296.658z"/>
		<linearGradient id="SVGID_8_" gradientUnits="userSpaceOnUse" x1="462.9766" y1="290.5195" x2="518.3711" y2="290.5195">
			<stop  offset="0" style="stop-color:#F29100"/>
			<stop  offset="1" style="stop-color:#E5007E"/>
		</linearGradient>
		<path fill="url(#SVGID_8_)" d="M511.409,269.542c-4.64-4.06-11.31-6.09-20.01-6.09c-7.671,0-13.713,1.595-18.127,4.784
			c-4.415,3.191-7.009,7.88-7.781,14.066h20.301c0.127-1.288,0.709-2.32,1.739-3.093c1.03-0.773,2.287-1.159,3.771-1.159
			c1.61,0,2.948,0.435,4.013,1.304c1.063,0.871,1.594,1.95,1.594,3.238v3.094h-16.433c-5.352,0-9.604,1.435-12.761,4.302
			c-3.16,2.868-4.738,6.686-4.738,11.454c0,4.964,1.741,8.895,5.22,11.796c3.481,2.899,8.219,4.35,14.212,4.35
			c3.674,0,7.041-0.579,10.104-1.74c3.059-1.159,5.687-2.867,7.878-5.123l2.224,5.606h15.758v-29.098
			C518.371,279.499,516.051,273.602,511.409,269.542z M497.198,296.513c0,2.257-0.71,4.061-2.126,5.414
			c-1.418,1.354-3.287,2.029-5.607,2.029c-1.677,0-2.997-0.369-3.964-1.111c-0.966-0.739-1.449-1.723-1.449-2.948
			c0-1.223,0.483-2.206,1.449-2.949c0.967-0.738,2.287-1.111,3.964-1.111h7.733V296.513z"/>
		<linearGradient id="SVGID_9_" gradientUnits="userSpaceOnUse" x1="48.5591" y1="283.4648" x2="130.1978" y2="283.4648">
			<stop  offset="0" style="stop-color:#F29100"/>
			<stop  offset="1" style="stop-color:#E5007E"/>
		</linearGradient>
		<path fill="url(#SVGID_9_)" d="M120.921,298.475c-3.256-5.635-6.511-11.274-9.765-16.908c-0.653-1.134-1.921-1.866-3.229-1.866
			c-11.632,0-23.263,0-34.895,0c-5.448-9.436-10.896-18.87-16.344-28.308c5.448-9.436,10.896-18.871,16.344-28.309
			c10.896,0,21.792,0,32.688,0c5.447,9.439,10.896,18.874,16.344,28.31c-2.613,4.522-5.223,9.045-7.834,13.569
			c-2.437,4.222,4.101,7.994,6.538,3.774c2.59-4.488,5.182-8.976,7.771-13.462c1.091-1.885,2.357-3.684,1.069-5.917
			c-0.799-1.384-1.597-2.768-2.395-4.153c-5.353-9.269-10.705-18.537-16.058-27.809c-0.653-1.13-1.921-1.863-3.229-1.863
			c-6.286,0-12.572,0-18.857,0c-4.259,0-8.516,0-12.773,0c-2.053,0-5.467-0.589-7.354,0.518c-1.768,1.035-2.86,3.972-3.826,5.643
			c-2.099,3.634-4.196,7.268-6.292,10.9c-3.254,5.635-6.511,11.274-9.764,16.909c-0.679,1.172-0.664,2.631,0.012,3.8
			c6.175,10.695,12.35,21.391,18.524,32.083c0.223,0.386,0.486,0.683,0.768,0.939c0.091,0.087,0.176,0.175,0.279,0.249
			c0.096,0.073,0.198,0.121,0.298,0.18c0.109,0.064,0.215,0.135,0.337,0.188c0.103,0.044,0.207,0.068,0.312,0.101
			c0.373,0.121,0.773,0.209,1.236,0.209c11.63,0,23.263,0,34.894,0c5.449,9.435,10.896,18.87,16.344,28.309
			c-5.447,9.434-10.896,18.87-16.342,28.305c-10.896,0-21.793,0-32.689,0c-5.448-9.435-10.896-18.871-16.344-28.309
			c2.514-4.354,5.029-8.708,7.543-13.062c2.436-4.22-4.103-7.997-6.538-3.775c-2.878,4.981-5.755,9.969-8.632,14.952
			c-0.679,1.17-0.664,2.631,0.012,3.798c3.142,5.444,6.288,10.889,9.43,16.333c2.127,3.688,4.257,7.373,6.387,11.061
			c1.022,1.771,2.189,4.959,4.077,6.047c1.779,1.03,4.859,0.508,6.795,0.508c4.194,0,8.391,0,12.584,0c6.509,0,13.018,0,19.527,0
			c1.35,0,2.62-0.719,3.297-1.889c3.144-5.442,6.286-10.887,9.428-16.331c2.129-3.686,4.259-7.373,6.387-11.061
			c1.02-1.769,3.201-4.38,3.214-6.552c0.016-2.065-2.012-4.529-2.984-6.213C125.115,305.741,123.018,302.107,120.921,298.475z"/>
		<linearGradient id="SVGID_10_" gradientUnits="userSpaceOnUse" x1="72.8403" y1="234.3706" x2="82.3125" y2="234.3706">
			<stop  offset="0" style="stop-color:#F29100"/>
			<stop  offset="1" style="stop-color:#E5007E"/>
		</linearGradient>
		<circle fill="url(#SVGID_10_)" cx="77.576" cy="234.371" r="4.736"/>
		<linearGradient id="SVGID_11_" gradientUnits="userSpaceOnUse" x1="94.9214" y1="299.6426" x2="104.395" y2="299.6426">
			<stop  offset="0" style="stop-color:#F29100"/>
			<stop  offset="1" style="stop-color:#E5007E"/>
		</linearGradient>
		<path fill="url(#SVGID_11_)" d="M104.395,299.643c0-2.618-2.122-4.736-4.738-4.736c-2.614,0-4.736,2.118-4.736,4.736
			c0,2.612,2.122,4.735,4.736,4.735C102.273,304.378,104.395,302.255,104.395,299.643z"/>
	</g>
	<g>
		<linearGradient id="SVGID_12_" gradientUnits="userSpaceOnUse" x1="48.5591" y1="283.4648" x2="518.3711" y2="283.4648">
			<stop  offset="0" style="stop-color:#F29100"/>
			<stop  offset="1" style="stop-color:#E5007E"/>
		</linearGradient>
		<path fill="url(#SVGID_12_)" d="M190.411,282.012c-3.899-3.415-10.069-5.929-18.512-7.541c-4.061-0.773-6.913-1.643-8.557-2.609
			c-1.643-0.967-2.465-2.224-2.465-3.771c0-1.288,0.516-2.32,1.547-3.094c1.032-0.773,2.448-1.159,4.254-1.159
			c2.063,0,3.658,0.565,4.785,1.692c1.127,1.128,1.693,2.754,1.693,4.882h21.848c-0.065-4.705-1.273-8.812-3.625-12.326
			s-5.672-6.203-9.959-8.073c-4.285-1.868-9.329-2.804-15.127-2.804c-8.508,0-15.194,1.902-20.061,5.705
			c-4.866,3.803-7.299,9.022-7.299,15.66c0,5.931,1.9,10.635,5.703,14.115c3.803,3.479,9.7,5.896,17.692,7.25
			c3.867,0.645,6.687,1.499,8.459,2.562c1.771,1.062,2.659,2.434,2.659,4.107c0,1.354-0.518,2.402-1.547,3.142
			c-1.032,0.742-2.481,1.112-4.35,1.112c-2.191,0-3.868-0.58-5.027-1.74c-1.159-1.159-1.741-2.835-1.741-5.026h-22.332
			c0,7.477,2.562,13.292,7.686,17.449s12.293,6.236,21.51,6.236c9.022,0,16.047-1.935,21.075-5.801
			c5.027-3.867,7.541-9.248,7.541-16.146C196.26,290.037,194.31,285.43,190.411,282.012z"/>
		<linearGradient id="SVGID_13_" gradientUnits="userSpaceOnUse" x1="48.5591" y1="283.4648" x2="518.3711" y2="283.4648">
			<stop  offset="0" style="stop-color:#F29100"/>
			<stop  offset="1" style="stop-color:#E5007E"/>
		</linearGradient>
		<path fill="url(#SVGID_13_)" d="M237.393,298.302c-1.579,1.063-3.432,1.595-5.558,1.595c-2.708,0-4.883-0.854-6.527-2.562
			c-1.643-1.708-2.465-3.947-2.465-6.719c0-2.836,0.822-5.107,2.465-6.814c1.645-1.708,3.819-2.562,6.527-2.562
			c1.996,0,3.752,0.45,5.268,1.353c1.515,0.903,2.69,2.223,3.528,3.963h20.399c-0.581-4.639-2.193-8.7-4.834-12.18
			c-2.644-3.48-6.108-6.17-10.394-8.072c-4.286-1.899-9.104-2.852-14.451-2.852c-5.801,0-10.974,1.145-15.516,3.432
			c-4.545,2.289-8.09,5.496-10.634,9.618c-2.546,4.126-3.819,8.831-3.819,14.115c0,5.285,1.257,9.989,3.771,14.113
			c2.514,4.126,6.042,7.333,10.585,9.62c4.544,2.286,9.747,3.433,15.613,3.433c5.477,0,10.358-0.968,14.646-2.901
			c4.285-1.933,7.766-4.704,10.44-8.313c2.674-3.609,4.302-7.83,4.883-12.664h-20.496
			C240.115,295.772,238.972,297.237,237.393,298.302z"/>
		<linearGradient id="SVGID_14_" gradientUnits="userSpaceOnUse" x1="48.5591" y1="283.4648" x2="518.3711" y2="283.4648">
			<stop  offset="0" style="stop-color:#F29100"/>
			<stop  offset="1" style="stop-color:#E5007E"/>
		</linearGradient>
		<path fill="url(#SVGID_14_)" d="M293.269,266.303c-2.416,1-4.462,2.596-6.138,4.785l-2.418-6.284h-15.66v51.527h22.041V295.45
			c0-3.736,0.837-6.509,2.514-8.314c1.675-1.804,4.383-2.706,8.12-2.706h6.769v-19.625h-6.574
			C298.569,264.804,295.687,265.306,293.269,266.303z"/>
		<linearGradient id="SVGID_15_" gradientUnits="userSpaceOnUse" x1="48.5591" y1="283.4648" x2="518.3711" y2="283.4648">
			<stop  offset="0" style="stop-color:#F29100"/>
			<stop  offset="1" style="stop-color:#E5007E"/>
		</linearGradient>
		<rect x="316.615" y="264.804" fill="url(#SVGID_15_)" width="22.04" height="51.527"/>
		<linearGradient id="SVGID_16_" gradientUnits="userSpaceOnUse" x1="48.5591" y1="283.4648" x2="518.3711" y2="283.4648">
			<stop  offset="0" style="stop-color:#F29100"/>
			<stop  offset="1" style="stop-color:#E5007E"/>
		</linearGradient>
		<path fill="url(#SVGID_16_)" d="M327.635,234.739c-3.803,0-6.863,1.112-9.184,3.336c-2.32,2.224-3.48,5.14-3.48,8.749
			s1.16,6.542,3.48,8.796c2.32,2.258,5.381,3.385,9.184,3.385c3.736,0,6.768-1.127,9.088-3.385c2.32-2.255,3.479-5.187,3.479-8.796
			s-1.159-6.525-3.479-8.749C334.402,235.851,331.371,234.739,327.635,234.739z"/>
		<linearGradient id="SVGID_17_" gradientUnits="userSpaceOnUse" x1="48.5591" y1="283.4648" x2="518.3711" y2="283.4648">
			<stop  offset="0" style="stop-color:#F29100"/>
			<stop  offset="1" style="stop-color:#E5007E"/>
		</linearGradient>
		<path fill="url(#SVGID_17_)" d="M398.593,266.883c-3.932-2.287-8.476-3.432-13.631-3.432c-7.091,0-12.955,2.16-17.595,6.478
			l-2.03-5.125h-15.66v70.862h22.041v-21.269c3.866,2.191,8.281,3.286,13.244,3.286c5.155,0,9.699-1.128,13.631-3.383
			c3.931-2.255,6.993-5.43,9.184-9.522c2.19-4.091,3.287-8.812,3.287-14.162c0-5.348-1.097-10.069-3.287-14.162
			S402.523,269.172,398.593,266.883z M387.04,297.335c-1.707,1.708-3.947,2.562-6.719,2.562c-2.771,0-4.994-0.854-6.67-2.562
			c-1.677-1.708-2.514-3.947-2.514-6.719c0-2.836,0.837-5.107,2.514-6.814c1.676-1.708,3.899-2.562,6.67-2.562
			c2.771,0,5.012,0.869,6.719,2.609c1.707,1.74,2.563,3.997,2.563,6.767C389.604,293.388,388.747,295.627,387.04,297.335z"/>
		<linearGradient id="SVGID_18_" gradientUnits="userSpaceOnUse" x1="48.5591" y1="283.4648" x2="518.3711" y2="283.4648">
			<stop  offset="0" style="stop-color:#F29100"/>
			<stop  offset="1" style="stop-color:#E5007E"/>
		</linearGradient>
		<path fill="url(#SVGID_18_)" d="M446.786,296.658c-1.193-1.127-1.789-2.916-1.789-5.364v-9.571h11.794v-16.919h-11.794v-13.534
			h-17.11l-1.063,6.478c-0.324,1.932-0.759,3.399-1.306,4.398c-0.549,1-1.371,1.691-2.465,2.077c-1.098,0.388-2.675,0.58-4.737,0.58
			h-4.544v17.015h9.184v13.92c0,6.833,1.918,11.973,5.754,15.42c3.832,3.448,9.553,5.172,17.157,5.172h11.506V298.35h-4.932
			C449.863,298.35,447.978,297.786,446.786,296.658z"/>
		<linearGradient id="SVGID_19_" gradientUnits="userSpaceOnUse" x1="48.5591" y1="283.4648" x2="518.3711" y2="283.4648">
			<stop  offset="0" style="stop-color:#F29100"/>
			<stop  offset="1" style="stop-color:#E5007E"/>
		</linearGradient>
		<path fill="url(#SVGID_19_)" d="M511.409,269.542c-4.64-4.06-11.31-6.09-20.01-6.09c-7.671,0-13.713,1.595-18.127,4.784
			c-4.415,3.191-7.009,7.88-7.781,14.066h20.301c0.127-1.288,0.709-2.32,1.739-3.093c1.03-0.773,2.287-1.159,3.771-1.159
			c1.61,0,2.948,0.435,4.013,1.304c1.063,0.871,1.594,1.95,1.594,3.238v3.094h-16.433c-5.352,0-9.604,1.435-12.761,4.302
			c-3.16,2.868-4.738,6.686-4.738,11.454c0,4.964,1.741,8.895,5.22,11.796c3.481,2.899,8.219,4.35,14.212,4.35
			c3.674,0,7.041-0.579,10.104-1.74c3.059-1.159,5.687-2.867,7.878-5.123l2.224,5.606h15.758v-29.098
			C518.371,279.499,516.051,273.602,511.409,269.542z M497.198,296.513c0,2.257-0.71,4.061-2.126,5.414
			c-1.418,1.354-3.287,2.029-5.607,2.029c-1.677,0-2.997-0.369-3.964-1.111c-0.966-0.739-1.449-1.723-1.449-2.948
			c0-1.223,0.483-2.206,1.449-2.949c0.967-0.738,2.287-1.111,3.964-1.111h7.733V296.513z"/>
		<linearGradient id="SVGID_20_" gradientUnits="userSpaceOnUse" x1="48.5591" y1="283.4648" x2="518.3711" y2="283.4648">
			<stop  offset="0" style="stop-color:#F29100"/>
			<stop  offset="1" style="stop-color:#E5007E"/>
		</linearGradient>
		<path fill="url(#SVGID_20_)" d="M120.921,298.475c-3.256-5.635-6.511-11.274-9.765-16.908c-0.653-1.134-1.921-1.866-3.229-1.866
			c-11.632,0-23.263,0-34.895,0c-5.448-9.436-10.896-18.87-16.344-28.308c5.448-9.436,10.896-18.871,16.344-28.309
			c10.896,0,21.792,0,32.688,0c5.447,9.439,10.896,18.874,16.344,28.31c-2.613,4.522-5.223,9.045-7.834,13.569
			c-2.437,4.222,4.101,7.994,6.538,3.774c2.59-4.488,5.182-8.976,7.771-13.462c1.091-1.885,2.357-3.684,1.069-5.917
			c-0.799-1.384-1.597-2.768-2.395-4.153c-5.353-9.269-10.705-18.537-16.058-27.809c-0.653-1.13-1.921-1.863-3.229-1.863
			c-6.286,0-12.572,0-18.857,0c-4.259,0-8.516,0-12.773,0c-2.053,0-5.467-0.589-7.354,0.518c-1.768,1.035-2.86,3.972-3.826,5.643
			c-2.099,3.634-4.196,7.268-6.292,10.9c-3.254,5.635-6.511,11.274-9.764,16.909c-0.679,1.172-0.664,2.631,0.012,3.8
			c6.175,10.695,12.35,21.391,18.524,32.083c0.223,0.386,0.486,0.683,0.768,0.939c0.091,0.087,0.176,0.175,0.279,0.249
			c0.096,0.073,0.198,0.121,0.298,0.18c0.109,0.064,0.215,0.135,0.337,0.188c0.103,0.044,0.207,0.068,0.312,0.101
			c0.373,0.121,0.773,0.209,1.236,0.209c11.63,0,23.263,0,34.894,0c5.449,9.435,10.896,18.87,16.344,28.309
			c-5.447,9.434-10.896,18.87-16.342,28.305c-10.896,0-21.793,0-32.689,0c-5.448-9.435-10.896-18.871-16.344-28.309
			c2.514-4.354,5.029-8.708,7.543-13.062c2.436-4.22-4.103-7.997-6.538-3.775c-2.878,4.981-5.755,9.969-8.632,14.952
			c-0.679,1.17-0.664,2.631,0.012,3.798c3.142,5.444,6.288,10.889,9.43,16.333c2.127,3.688,4.257,7.373,6.387,11.061
			c1.022,1.771,2.189,4.959,4.077,6.047c1.779,1.03,4.859,0.508,6.795,0.508c4.194,0,8.391,0,12.584,0c6.509,0,13.018,0,19.527,0
			c1.35,0,2.62-0.719,3.297-1.889c3.144-5.442,6.286-10.887,9.428-16.331c2.129-3.686,4.259-7.373,6.387-11.061
			c1.02-1.769,3.201-4.38,3.214-6.552c0.016-2.065-2.012-4.529-2.984-6.213C125.115,305.741,123.018,302.107,120.921,298.475z"/>
		<linearGradient id="SVGID_21_" gradientUnits="userSpaceOnUse" x1="48.5591" y1="283.4648" x2="518.3711" y2="283.4648">
			<stop  offset="0" style="stop-color:#F29100"/>
			<stop  offset="1" style="stop-color:#E5007E"/>
		</linearGradient>
		<circle fill="url(#SVGID_21_)" cx="77.576" cy="234.371" r="4.736"/>
		<linearGradient id="SVGID_22_" gradientUnits="userSpaceOnUse" x1="48.5591" y1="283.4648" x2="518.3711" y2="283.4648">
			<stop  offset="0" style="stop-color:#F29100"/>
			<stop  offset="1" style="stop-color:#E5007E"/>
		</linearGradient>
		<path fill="url(#SVGID_22_)" d="M104.395,299.643c0-2.618-2.122-4.736-4.738-4.736c-2.614,0-4.736,2.118-4.736,4.736
			c0,2.612,2.122,4.735,4.736,4.735C102.273,304.378,104.395,302.255,104.395,299.643z"/>
	</g>
</g>
</svg>
